<svg width="0" height="0" class="hidden">
  <svg version="1.1" id="icon_en" xmlns="http://www.w3.org/2000/svg" xmlns:xlink="http://www.w3.org/1999/xlink" x="0px" y="0px" enable-background="new 0 0 512 512" xml:space="preserve" viewBox="0 0 512 512">
    <rect y="0.2" fill="#F5F5F5" width="511.5" height="511.5"></rect>
    <path fill="#FF4B55" d="M0,393.7h512V433H0V393.7z M0,511.8h512v-39.3H0V511.8z M0,354.4h512V315H0V354.4z M275.4,0.2v39.3H512V0.2
	H275.4z M275.4,118.3H512V78.9H275.4V118.3z M275.4,197H512v-39.3H275.4V197z M275.4,275.4H512V236H275.4V275.4z"></path>
    <path fill="#41479B" d="M0,0.2v275.4h275.4V0.2H0z M44.6,244.1l-5.4,4l2,6.4c0.3,0.8-0.7,1.5-1.4,1l-5.5-3.9l-5.5,3.9
	c-0.7,0.5-1.6-0.2-1.4-1l2-6.4l-5.4-4c-0.7-0.5-0.3-1.6,0.5-1.6l6.7-0.1l2.1-6.4c0.3-0.8,1.4-0.8,1.7,0l2.1,6.4l6.7,0.1
	C44.9,242.5,45.3,243.6,44.6,244.1z M44.6,194.9l-5.4,4l2,6.4c0.3,0.8-0.7,1.5-1.4,1l-5.5-3.9l-5.5,3.9c-0.7,0.5-1.6-0.2-1.4-1
	l2-6.4l-5.4-4c-0.7-0.5-0.3-1.6,0.5-1.6l6.7-0.1l2.1-6.4c0.3-0.8,1.4-0.8,1.7,0l2.1,6.4l6.7,0.1C44.9,193.3,45.3,194.4,44.6,194.9z
	 M44.6,140.8l-5.4,4l2,6.4c0.3,0.8-0.7,1.5-1.4,1l-5.5-3.9l-5.5,3.9c-0.7,0.5-1.6-0.2-1.4-1l2-6.4l-5.4-4c-0.7-0.5-0.3-1.6,0.5-1.6
	l6.7-0.1l2.1-6.4c0.3-0.8,1.4-0.8,1.7,0l2.1,6.4l6.7,0.1C44.9,139.2,45.3,140.3,44.6,140.8z M44.6,81.9l-5.4,4l2,6.4
	c0.3,0.8-0.7,1.5-1.4,1l-5.5-3.9l-5.5,3.9c-0.7,0.5-1.6-0.2-1.4-1l2-6.4l-5.4-4c-0.7-0.5-0.3-1.6,0.5-1.6l6.7-0.1l2.1-6.4
	c0.3-0.8,1.4-0.8,1.7,0l2.1,6.4l6.7,0.1C44.9,80.3,45.3,81.4,44.6,81.9z M44.6,28.9l-5.4,4l2,6.4c0.3,0.8-0.7,1.5-1.4,1l-5.5-3.9
	l-5.5,3.9c-0.7,0.5-1.6-0.2-1.4-1l2-6.4l-5.4-4c-0.7-0.5-0.3-1.6,0.5-1.6l6.7-0.1l2.1-6.4c0.3-0.8,1.4-0.8,1.7,0l2.1,6.4l6.7,0.1
	C44.9,27.2,45.3,28.3,44.6,28.9z M70.4,219.1l-5.4,4l2,6.4c0.3,0.8-0.7,1.5-1.4,1l-5.5-3.9l-5.5,3.9c-0.7,0.5-1.6-0.2-1.4-1l2-6.4
	l-5.4-4c-0.7-0.5-0.3-1.6,0.5-1.6l6.7-0.1l2.1-6.4c0.3-0.8,1.4-0.8,1.7,0l2.1,6.4l6.7,0.1C70.8,217.4,71.1,218.5,70.4,219.1z
	 M70.4,168.8l-5.4,4l2,6.4c0.3,0.8-0.7,1.5-1.4,1l-5.5-3.9l-5.5,3.9c-0.7,0.5-1.6-0.2-1.4-1l2-6.4l-5.4-4c-0.7-0.5-0.3-1.6,0.5-1.6
	l6.7-0.1l2.1-6.4c0.3-0.8,1.4-0.8,1.7,0l2.1,6.4l6.7,0.1C70.8,167.2,71.1,168.3,70.4,168.8z M70.4,112.9l-5.4,4l2,6.4
	c0.3,0.8-0.7,1.5-1.4,1l-5.5-3.9l-5.5,3.9c-0.7,0.5-1.6-0.2-1.4-1l2-6.4l-5.4-4c-0.7-0.5-0.3-1.6,0.5-1.6l6.7-0.1l2.1-6.4
	c0.3-0.8,1.4-0.8,1.7,0l2.1,6.4l6.7,0.1C70.8,111.3,71.1,112.4,70.4,112.9z M70.4,54L65,58l2,6.4c0.3,0.8-0.7,1.5-1.4,1l-5.5-3.9
	l-5.5,3.9c-0.7,0.5-1.6-0.2-1.4-1l2-6.4L50,54c-0.7-0.5-0.3-1.6,0.5-1.6l6.7-0.1l2.1-6.4c0.3-0.8,1.4-0.8,1.7,0l2.1,6.4l6.7,0.1
	C70.8,52.4,71.1,53.5,70.4,54z M96.3,244.1l-5.4,4l2,6.4c0.3,0.8-0.7,1.5-1.4,1l-5.5-3.9l-5.5,3.9c-0.7,0.5-1.6-0.2-1.4-1l2-6.4
	l-5.4-4c-0.7-0.5-0.3-1.6,0.5-1.6l6.7-0.1l2.1-6.4c0.3-0.8,1.4-0.8,1.7,0l2.1,6.4l6.7,0.1C96.6,242.5,97,243.6,96.3,244.1z
	 M96.3,194.9l-5.4,4l2,6.4c0.3,0.8-0.7,1.5-1.4,1l-5.5-3.9l-5.5,3.9c-0.7,0.5-1.6-0.2-1.4-1l2-6.4l-5.4-4c-0.7-0.5-0.3-1.6,0.5-1.6
	l6.7-0.1l2.1-6.4c0.3-0.8,1.4-0.8,1.7,0l2.1,6.4l6.7,0.1C96.6,193.3,97,194.4,96.3,194.9z M96.3,140.8l-5.4,4l2,6.4
	c0.3,0.8-0.7,1.5-1.4,1l-5.5-3.9l-5.5,3.9c-0.7,0.5-1.6-0.2-1.4-1l2-6.4l-5.4-4c-0.7-0.5-0.3-1.6,0.5-1.6l6.7-0.1l2.1-6.4
	c0.3-0.8,1.4-0.8,1.7,0l2.1,6.4l6.7,0.1C96.6,139.2,97,140.3,96.3,140.8z M96.3,81.9l-5.4,4l2,6.4c0.3,0.8-0.7,1.5-1.4,1L86,89.4
	l-5.5,3.9c-0.7,0.5-1.6-0.2-1.4-1l2-6.4l-5.4-4c-0.7-0.5-0.3-1.6,0.5-1.6l6.7-0.1l2.1-6.4c0.3-0.8,1.4-0.8,1.7,0l2.1,6.4l6.7,0.1
	C96.6,80.3,97,81.4,96.3,81.9z M96.3,28.9l-5.4,4l2,6.4c0.3,0.8-0.7,1.5-1.4,1L86,36.3l-5.5,3.9c-0.7,0.5-1.6-0.2-1.4-1l2-6.4
	l-5.4-4c-0.7-0.5-0.3-1.6,0.5-1.6l6.7-0.1l2.1-6.4c0.3-0.8,1.4-0.8,1.7,0l2.1,6.4l6.7,0.1C96.6,27.2,97,28.3,96.3,28.9z
	 M122.1,219.1l-5.4,4l2,6.4c0.3,0.8-0.7,1.5-1.4,1l-5.5-3.9l-5.5,3.9c-0.7,0.5-1.6-0.2-1.4-1l2-6.4l-5.4-4c-0.7-0.5-0.3-1.6,0.5-1.6
	l6.7-0.1l2.1-6.4c0.3-0.8,1.4-0.8,1.7,0l2.1,6.4l6.7,0.1C122.4,217.4,122.8,218.5,122.1,219.1z M122.1,168.8l-5.4,4l2,6.4
	c0.3,0.8-0.7,1.5-1.4,1l-5.5-3.9l-5.5,3.9c-0.7,0.5-1.6-0.2-1.4-1l2-6.4l-5.4-4c-0.7-0.5-0.3-1.6,0.5-1.6l6.7-0.1l2.1-6.4
	c0.3-0.8,1.4-0.8,1.7,0l2.1,6.4l6.7,0.1C122.4,167.2,122.8,168.3,122.1,168.8z M122.1,112.9l-5.4,4l2,6.4c0.3,0.8-0.7,1.5-1.4,1
	l-5.5-3.9l-5.5,3.9c-0.7,0.5-1.6-0.2-1.4-1l2-6.4l-5.4-4c-0.7-0.5-0.3-1.6,0.5-1.6l6.7-0.1l2.1-6.4c0.3-0.8,1.4-0.8,1.7,0l2.1,6.4
	l6.7,0.1C122.4,111.3,122.8,112.4,122.1,112.9z M122.1,54l-5.4,4l2,6.4c0.3,0.8-0.7,1.5-1.4,1l-5.5-3.9l-5.5,3.9
	c-0.7,0.5-1.6-0.2-1.4-1l2-6.4l-5.4-4c-0.7-0.5-0.3-1.6,0.5-1.6l6.7-0.1L111,46c0.3-0.8,1.4-0.8,1.7,0l2.1,6.4l6.7,0.1
	C122.4,52.4,122.8,53.5,122.1,54z M147.9,244.1l-5.4,4l2,6.4c0.3,0.8-0.7,1.5-1.4,1l-5.5-3.9l-5.5,3.9c-0.7,0.5-1.6-0.2-1.4-1l2-6.4
	l-5.4-4c-0.7-0.5-0.3-1.6,0.5-1.6l6.7-0.1l2.1-6.4c0.3-0.8,1.4-0.8,1.7,0l2.1,6.4l6.7,0.1C148.3,242.5,148.6,243.6,147.9,244.1z
	 M147.9,194.9l-5.4,4l2,6.4c0.3,0.8-0.7,1.5-1.4,1l-5.5-3.9l-5.5,3.9c-0.7,0.5-1.6-0.2-1.4-1l2-6.4l-5.4-4c-0.7-0.5-0.3-1.6,0.5-1.6
	l6.7-0.1l2.1-6.4c0.3-0.8,1.4-0.8,1.7,0l2.1,6.4l6.7,0.1C148.3,193.3,148.6,194.4,147.9,194.9z M147.9,140.8l-5.4,4l2,6.4
	c0.3,0.8-0.7,1.5-1.4,1l-5.5-3.9l-5.5,3.9c-0.7,0.5-1.6-0.2-1.4-1l2-6.4l-5.4-4c-0.7-0.5-0.3-1.6,0.5-1.6l6.7-0.1l2.1-6.4
	c0.3-0.8,1.4-0.8,1.7,0l2.1,6.4l6.7,0.1C148.3,139.2,148.6,140.3,147.9,140.8z M147.9,81.9l-5.4,4l2,6.4c0.3,0.8-0.7,1.5-1.4,1
	l-5.5-3.9l-5.5,3.9c-0.7,0.5-1.6-0.2-1.4-1l2-6.4l-5.4-4c-0.7-0.5-0.3-1.6,0.5-1.6l6.7-0.1l2.1-6.4c0.3-0.8,1.4-0.8,1.7,0l2.1,6.4
	l6.7,0.1C148.3,80.3,148.6,81.4,147.9,81.9z M147.9,28.9l-5.4,4l2,6.4c0.3,0.8-0.7,1.5-1.4,1l-5.5-3.9l-5.5,3.9
	c-0.7,0.5-1.6-0.2-1.4-1l2-6.4l-5.4-4c-0.7-0.5-0.3-1.6,0.5-1.6l6.7-0.1l2.1-6.4c0.3-0.8,1.4-0.8,1.7,0l2.1,6.4l6.7,0.1
	C148.3,27.2,148.6,28.3,147.9,28.9z M173.8,219.1l-5.4,4l2,6.4c0.3,0.8-0.7,1.5-1.4,1l-5.5-3.9l-5.5,3.9c-0.7,0.5-1.6-0.2-1.4-1
	l2-6.4l-5.4-4c-0.7-0.5-0.3-1.6,0.5-1.6l6.7-0.1l2.1-6.4c0.3-0.8,1.4-0.8,1.7,0l2.1,6.4l6.7,0.1
	C174.1,217.4,174.5,218.5,173.8,219.1z M173.8,168.8l-5.4,4l2,6.4c0.3,0.8-0.7,1.5-1.4,1l-5.5-3.9l-5.5,3.9c-0.7,0.5-1.6-0.2-1.4-1
	l2-6.4l-5.4-4c-0.7-0.5-0.3-1.6,0.5-1.6l6.7-0.1l2.1-6.4c0.3-0.8,1.4-0.8,1.7,0l2.1,6.4l6.7,0.1
	C174.1,167.2,174.5,168.3,173.8,168.8z M173.8,112.9l-5.4,4l2,6.4c0.3,0.8-0.7,1.5-1.4,1l-5.5-3.9l-5.5,3.9c-0.7,0.5-1.6-0.2-1.4-1
	l2-6.4l-5.4-4c-0.7-0.5-0.3-1.6,0.5-1.6l6.7-0.1l2.1-6.4c0.3-0.8,1.4-0.8,1.7,0l2.1,6.4l6.7,0.1
	C174.1,111.3,174.5,112.4,173.8,112.9z M173.8,54l-5.4,4l2,6.4c0.3,0.8-0.7,1.5-1.4,1l-5.5-3.9l-5.5,3.9c-0.7,0.5-1.6-0.2-1.4-1
	l2-6.4l-5.4-4c-0.7-0.5-0.3-1.6,0.5-1.6l6.7-0.1l2.1-6.4c0.3-0.8,1.4-0.8,1.7,0l2.1,6.4l6.7,0.1C174.1,52.4,174.5,53.5,173.8,54z
	 M199.6,244.1l-5.4,4l2,6.4c0.3,0.8-0.7,1.5-1.4,1l-5.5-3.9l-5.5,3.9c-0.7,0.5-1.6-0.2-1.4-1l2-6.4l-5.4-4c-0.7-0.5-0.3-1.6,0.5-1.6
	l6.7-0.1l2.1-6.4c0.3-0.8,1.4-0.8,1.7,0l2.1,6.4l6.7,0.1C200,242.5,200.3,243.6,199.6,244.1z M199.6,194.9l-5.4,4l2,6.4
	c0.3,0.8-0.7,1.5-1.4,1l-5.5-3.9l-5.5,3.9c-0.7,0.5-1.6-0.2-1.4-1l2-6.4l-5.4-4c-0.7-0.5-0.3-1.6,0.5-1.6l6.7-0.1l2.1-6.4
	c0.3-0.8,1.4-0.8,1.7,0l2.1,6.4l6.7,0.1C200,193.3,200.3,194.4,199.6,194.9z M199.6,140.8l-5.4,4l2,6.4c0.3,0.8-0.7,1.5-1.4,1
	l-5.5-3.9l-5.5,3.9c-0.7,0.5-1.6-0.2-1.4-1l2-6.4l-5.4-4c-0.7-0.5-0.3-1.6,0.5-1.6l6.7-0.1l2.1-6.4c0.3-0.8,1.4-0.8,1.7,0l2.1,6.4
	l6.7,0.1C200,139.2,200.3,140.3,199.6,140.8z M199.6,81.9l-5.4,4l2,6.4c0.3,0.8-0.7,1.5-1.4,1l-5.5-3.9l-5.5,3.9
	c-0.7,0.5-1.6-0.2-1.4-1l2-6.4l-5.4-4c-0.7-0.5-0.3-1.6,0.5-1.6l6.7-0.1l2.1-6.4c0.3-0.8,1.4-0.8,1.7,0l2.1,6.4l6.7,0.1
	C200,80.3,200.3,81.4,199.6,81.9z M199.6,28.9l-5.4,4l2,6.4c0.3,0.8-0.7,1.5-1.4,1l-5.5-3.9l-5.5,3.9c-0.7,0.5-1.6-0.2-1.4-1l2-6.4
	l-5.4-4c-0.7-0.5-0.3-1.6,0.5-1.6l6.7-0.1l2.1-6.4c0.3-0.8,1.4-0.8,1.7,0l2.1,6.4l6.7,0.1C200,27.2,200.3,28.3,199.6,28.9z
	 M225.5,219.1l-5.4,4l2,6.4c0.3,0.8-0.7,1.5-1.4,1l-5.5-3.9l-5.5,3.9c-0.7,0.5-1.6-0.2-1.4-1l2-6.4l-5.4-4c-0.7-0.5-0.3-1.6,0.5-1.6
	l6.7-0.1l2.1-6.4c0.3-0.8,1.4-0.8,1.7,0l2.1,6.4l6.7,0.1C225.8,217.4,226.2,218.5,225.5,219.1z M225.5,168.8l-5.4,4l2,6.4
	c0.3,0.8-0.7,1.5-1.4,1l-5.5-3.9l-5.5,3.9c-0.7,0.5-1.6-0.2-1.4-1l2-6.4l-5.4-4c-0.7-0.5-0.3-1.6,0.5-1.6l6.7-0.1l2.1-6.4
	c0.3-0.8,1.4-0.8,1.7,0l2.1,6.4l6.7,0.1C225.8,167.2,226.2,168.3,225.5,168.8z M225.5,112.9l-5.4,4l2,6.4c0.3,0.8-0.7,1.5-1.4,1
	l-5.5-3.9l-5.5,3.9c-0.7,0.5-1.6-0.2-1.4-1l2-6.4l-5.4-4c-0.7-0.5-0.3-1.6,0.5-1.6l6.7-0.1l2.1-6.4c0.3-0.8,1.4-0.8,1.7,0l2.1,6.4
	l6.7,0.1C225.8,111.3,226.2,112.4,225.5,112.9z M225.5,54l-5.4,4l2,6.4c0.3,0.8-0.7,1.5-1.4,1l-5.5-3.9l-5.5,3.9
	c-0.7,0.5-1.6-0.2-1.4-1l2-6.4l-5.4-4c-0.7-0.5-0.3-1.6,0.5-1.6l6.7-0.1l2.1-6.4c0.3-0.8,1.4-0.8,1.7,0l2.1,6.4l6.7,0.1
	C225.8,52.4,226.2,53.5,225.5,54z M251.3,244.1l-5.4,4l2,6.4c0.3,0.8-0.7,1.5-1.4,1l-5.5-3.9l-5.5,3.9c-0.7,0.5-1.6-0.2-1.4-1l2-6.4
	l-5.4-4c-0.7-0.5-0.3-1.6,0.5-1.6l6.7-0.1l2.1-6.4c0.3-0.8,1.4-0.8,1.7,0l2.1,6.4l6.7,0.1C251.6,242.5,252,243.6,251.3,244.1z
	 M251.3,194.9l-5.4,4l2,6.4c0.3,0.8-0.7,1.5-1.4,1l-5.5-3.9l-5.5,3.9c-0.7,0.5-1.6-0.2-1.4-1l2-6.4l-5.4-4c-0.7-0.5-0.3-1.6,0.5-1.6
	l6.7-0.1l2.1-6.4c0.3-0.8,1.4-0.8,1.7,0l2.1,6.4l6.7,0.1C251.6,193.3,252,194.4,251.3,194.9z M251.3,140.8l-5.4,4l2,6.4
	c0.3,0.8-0.7,1.5-1.4,1l-5.5-3.9l-5.5,3.9c-0.7,0.5-1.6-0.2-1.4-1l2-6.4l-5.4-4c-0.7-0.5-0.3-1.6,0.5-1.6l6.7-0.1l2.1-6.4
	c0.3-0.8,1.4-0.8,1.7,0l2.1,6.4l6.7,0.1C251.6,139.2,252,140.3,251.3,140.8z M251.3,81.9l-5.4,4l2,6.4c0.3,0.8-0.7,1.5-1.4,1
	l-5.5-3.9l-5.5,3.9c-0.7,0.5-1.6-0.2-1.4-1l2-6.4l-5.4-4c-0.7-0.5-0.3-1.6,0.5-1.6l6.7-0.1l2.1-6.4c0.3-0.8,1.4-0.8,1.7,0l2.1,6.4
	l6.7,0.1C251.6,80.3,252,81.4,251.3,81.9z M251.3,28.9l-5.4,4l2,6.4c0.3,0.8-0.7,1.5-1.4,1l-5.5-3.9l-5.5,3.9
	c-0.7,0.5-1.6-0.2-1.4-1l2-6.4l-5.4-4c-0.7-0.5-0.3-1.6,0.5-1.6l6.7-0.1l2.1-6.4c0.3-0.8,1.4-0.8,1.7,0l2.1,6.4l6.7,0.1
	C251.6,27.2,252,28.3,251.3,28.9z"></path>
  </svg>

	<svg xmlns="http://www.w3.org/2000/svg" id="icon_vi" viewBox="0 0 512 512">
    <defs>
      <clipPath id="a">
        <path fill-opacity=".7" d="M177.2 0h708.6v708.7H177.2z"></path>
      </clipPath>
    </defs>
    <g fill-rule="evenodd" clip-path="url(#a)" transform="translate(-128) scale(.72249)">
      <path fill="#da251d" d="M0 0h1063v708.7H0z"></path>
      <path fill="#ff0" d="m661 527.5-124-92.6-123.3 93.5 45.9-152-123.2-93.8 152.4-1.3L536 129.8 584.3 281l152.4.2-122.5 94.7L661 527.5z"></path>
    </g>
  </svg>

  <svg color="currentColor" xmlns="http://www.w3.org/2000/svg" viewBox="0 0 24 24" id="icon_out">
    <g>
      <path d="M0 0h24v24H0z" fill="none"></path>
      <path d="M12 22C6.477 22 2 17.523 2 12S6.477 2 12 2a9.985 9.985 0 0 1 8 4h-2.71a8 8 0 1 0 .001 12h2.71A9.985 9.985 0 0 1 12 22zm7-6v-3h-8v-2h8V8l5 4-5 4z"></path>
    </g>
  </svg>

	<svg version="1.1" id="icon_day-night" xmlns="http://www.w3.org/2000/svg" xmlns:xlink="http://www.w3.org/1999/xlink" x="0px" y="0px" enable-background="new 0 0 384 384" xml:space="preserve" viewBox="0 0 384 384">
    <path d="M103.5,0c-0.1,10.7-0.3,21.5-0.3,32.2c0,0.8,1,1.9,1.8,2.3c6.6,2.6,13.2,5.1,20.3,7.8c7.3-7.3,15.2-15.3,22.8-22.9
	c5.6,5.5,10.8,10.7,16.2,16c-7.7,7.6-15.6,15.5-22.9,22.8c2.8,7.3,5.2,14,8,20.5c0.4,0.9,2.1,1.8,3.3,1.8c8.9,0.2,17.7,0.1,26.6,0.1
	c1.4,0,2.7,0,4.3,0c0,7.6,0,14.9,0,22.6c-11.4,0-22.6,0-33,0c-3.2,7.6-6.1,14.6-9.2,22.1c7.5,7.4,15.4,15.3,23.2,23
	c-5.6,5.5-10.7,10.7-16,15.9c-7.5-7.6-15.3-15.5-22.6-22.8c-7.6,2.9-14.4,5.3-21.2,8.1c-0.8,0.3-1.5,2.1-1.5,3.2
	c-0.1,8.9-0.1,17.7-0.1,26.6c0,1.4,0,2.7,0,4.3c-7.6,0-14.7,0-22.3,0c-0.1-1.3-0.2-2.6-0.2-4c0-8.9-0.1-17.7,0-26.6
	c0-2.3-0.6-3.3-3-4.1c-6.3-2.1-12.5-4.8-19.4-7.5c-7.3,7.4-15.2,15.4-22.9,23.1c-5.4-5.4-10.5-10.5-15.5-15.5
	c7.7-7.6,15.6-15.5,23.1-22.8c-3.4-8.2-6.4-15.2-9.8-23.3c-10.4,0-21.8,0-33.1,0c0-7.5,0-15,0-22.5c10.7,0.1,21.4,0.2,32.2,0.2
	c0.8,0,2-0.7,2.2-1.3c2.7-6.8,5.2-13.6,8.2-21.6c-7.2-7.1-15.2-14.9-22.8-22.2c5.3-5.3,10.4-10.4,16.1-16
	c7.6,7.6,15.5,15.5,22.8,22.9c7-2.6,13.6-5.1,20.1-7.7c0.8-0.3,1.7-1.5,1.7-2.3c0-10.7-0.1-21.4-0.3-32.1C88,0,95.8,0,103.5,0z
	 M92.1,55.5c-19.9-0.1-36.3,16.1-36.5,36c-0.2,20,16.3,36.6,36.3,36.6c19.8,0,36.3-16.4,36.3-36.2C128.2,72,111.9,55.6,92.1,55.5z
	 M285,384c-4.6-0.9-9.3-1.6-13.9-2.7c-37.6-9.3-62.6-38.7-67.4-77.1c-5.4-43.2,24.5-85.2,65.1-96c6.6-1.7,13.3-3,20.2-4.6
	c-11.7,33-5.1,61.4,20.9,83.8c21.9,18.9,47.4,21.2,74.1,10.4c0,0.5,0,1,0,1.5c-1,4-2.1,7.9-3,11.9c-7.8,32.7-26,56.6-58.5,68
	c-6.8,2.4-14,3.3-21,4.9C296,384,290.5,384,285,384z M262.2,235.3c-21.6,6.9-39.3,39.3-36.3,66.2c3.6,31.9,29.4,57.4,60.9,59.9
	c27.6,2.3,59.1-15.3,65.2-36.3C303.1,325,262.2,284.2,262.2,235.3z M55.2,314.4c4.9,4.9,10,10.1,14.6,14.6
	c86.4-86.4,173.1-173.1,259.7-259.7c-4.7-4.7-9.8-9.9-14.6-14.6C228.2,141.4,141.4,228.2,55.2,314.4z"></path>
  </svg>

	<svg version="1.1" id="icon_logo" xmlns="http://www.w3.org/2000/svg" xmlns:xlink="http://www.w3.org/1999/xlink" x="0px" y="0px" enable-background="new 0 0 281 281" xml:space="preserve" viewBox="0 0 281 281">
    <path d="M254.1,54.2c-17.9-17.3-39.3-27.8-64-31.4c-2.1,0-3.3-1.2-3.5-3.6C184.6,6.4,178.5,0,168.1,0
	c-5,0-9.2,2.6-12.7,7.7c-3.5,5.2-5.9,9.1-7.1,11.8c-1.7,3.3-3.3,5-5,5c-6.6,0.6-12.6,1.8-18,3.4c-5.4,1.7-9.6,3.1-12.4,4.3
	c-3.5,1.8-7,4.7-10.3,8.7c-3.3,3.9-5,8.7-5,14.1c0,6.1,1.4,11,4.1,14.8c2.7,3.8,5.5,4.6,8.3,2.5c2.8-2.4,6-4.8,9.6-7.1
	c3.5-2.3,7.5-3.7,12-4.3c2.8,0,3.7,1.5,2.5,4.6c-1.2,4.3-3.6,12.7-7.3,25.3c-1.1,3.8-2.2,7.7-3.3,11.7c-5-4.1-10.6-7.5-16.9-9.9
	C72,79.1,46.5,55.8,31.1,21.7c-0.7-1.5-0.6-3.8-3.3-4.2c-2.6,20.8,5,38.3,17.2,54.2C56.7,87,71.5,98.9,86.8,110
	c13.5,9.8,13.6,9.8,9.5,25.5c-0.5,2.1-1.1,4.2-1.5,6.3c-3.8,19.7-4.4,39.2,2,58.6c0.2,0.7,0.4,1.2,0.7,1.7c-0.2,1-0.3,1.9-0.5,2.8
	c-0.4,1.7-0.7,3.3-1,4.9c-0.9-2.6-2.2-5.1-2.6-6.4c-8.5-24.7-8.4-49.5-0.4-74.2c2.1-6.3,0.2-8.2-5-10.9C50.3,99,19.4,73.1,7,30.4
	c-0.5,0.1-0.9,0.2-1,0.3c-0.4,1-1,1.9-1.2,2.9c-4.8,21.2-1.6,41,10.7,59c12.9,18.8,30.7,31.8,50.8,42.1c1.9,1,4,1.8,5.7,3.1
	c1.7,1.3,1.5,3.6,0.7,5.3c-1,2.2-2.8,0.6-4.1,0.1c-25.1-11-47-25.8-61.5-49.8C4.9,89.8,3.1,86.1,0.4,81
	c-1.7,17.4,2.6,31.3,11.3,43.9c11,16,26.3,27.2,43.3,35.9c4.6,2.4,9.3,4.3,14,6.4c3.7,1.7,3.1,5.3,2.2,7.7c-1.1,2.8-3.7,0.4-5.4-0.3
	c-19.8-8.2-37.3-19.7-51.4-36c-3.5-4-6.5-8.5-10.8-14.1c0.5,3.6,0.7,5.4,1,7.1c0.4,2.1,0.8,4.3,1.4,6.3
	c7.8,26.6,26.7,43.9,48.7,58.8c5,3.4,31.4,21.1,38.8,21.1c0.4,0,0.7,0,1.1-0.1c-1.7,10.7-2.1,18.9-1.1,24.5
	c1.6,11.5,6.5,20.9,14.5,28c8,7.1,14.5,10.7,19.5,10.7c8.7,0,19.5-1.7,32.4-5c12.9-3.3,24.9-8.8,36.3-16.4
	c3.8-2.4,10.3-7.9,19.6-16.4c9.3-8.5,18.8-19.3,28.5-32.3c9.7-13.1,18.2-28.2,25.6-45.3c7.4-17.1,11.1-35.7,11.1-55.8
	C281,90,272,71.5,254.1,54.2z M230,160.5c-7.3,15.3-16,29.3-26,41.9c-10,12.6-20.2,22.8-30.6,30.7c-10.4,7.9-18.6,11.8-24.8,11.8
	c-3.5,0-7.1-2.7-10.6-8.2c-4-6.4-3.7-19.4,1.1-39.2c3.1-15.5,8.3-37.1,15.7-64.9c7.4-27.8,14-49.9,19.6-66.3
	c1.2-4.9,3.5-7.1,7.1-6.8c14.4,0.3,27.9,4.8,40.5,13.4c12.6,8.7,18.9,22.7,18.9,42.1C241,130.1,237.3,145.2,230,160.5z"></path>
  </svg>

	<svg id="icon_eye-slash" viewBox="0 0 12 6" xmlns="http://www.w3.org/2000/svg">
		<path d="M11.219 4.57032C11.169 4.59881 11.1139 4.61717 11.0568 4.62435C10.9997 4.63152 10.9418 4.62737 10.8863 4.61214C10.8309 4.5969 10.779 4.57087 10.7336 4.53554C10.6882 4.50021 10.6502 4.45628 10.6218 4.40625L9.58272 2.59063C8.97863 2.99908 8.31226 3.30678 7.60959 3.50172L7.93061 5.42782C7.94008 5.48452 7.93828 5.54253 7.92532 5.59854C7.91236 5.65455 7.88849 5.70745 7.85507 5.75423C7.82165 5.801 7.77934 5.84074 7.73056 5.87115C7.68177 5.90157 7.62747 5.92207 7.57076 5.93149C7.54744 5.93531 7.52385 5.93732 7.50022 5.9375C7.39672 5.93735 7.29662 5.90051 7.21772 5.83352C7.13882 5.76654 7.08623 5.67375 7.06928 5.57165L6.75373 3.68055C6.08829 3.77315 5.41323 3.77315 4.74779 3.68055L4.43225 5.57165C4.41527 5.67393 4.36251 5.76687 4.28339 5.83387C4.20426 5.90088 4.1039 5.93761 4.00022 5.9375C3.97603 5.9374 3.9519 5.93539 3.92803 5.93149C3.87132 5.92207 3.81702 5.90157 3.76824 5.87115C3.71945 5.84074 3.67714 5.801 3.64372 5.75423C3.6103 5.70745 3.58643 5.65455 3.57347 5.59854C3.56051 5.54253 3.55871 5.48452 3.56818 5.42782L3.89084 3.50172C3.18845 3.30616 2.52245 2.99791 1.91881 2.58899L0.883029 4.40625C0.825013 4.50735 0.729214 4.58125 0.616707 4.61171C0.504199 4.64217 0.3842 4.62669 0.283107 4.56868C0.182014 4.51066 0.108108 4.41486 0.0776481 4.30235C0.0471881 4.18985 0.0626689 4.06985 0.120685 3.96875L1.21444 2.05469C0.830255 1.72278 0.476984 1.3567 0.158966 0.960942C0.119306 0.916661 0.0890865 0.864762 0.0701514 0.808413C0.0512163 0.752064 0.0439632 0.692447 0.048835 0.633201C0.0537068 0.573956 0.0706012 0.516325 0.0984868 0.463826C0.126372 0.411327 0.164664 0.365062 0.211025 0.327854C0.257386 0.290646 0.310843 0.263277 0.368134 0.247416C0.425424 0.231555 0.485346 0.227536 0.544241 0.235604C0.603136 0.243672 0.65977 0.263658 0.710684 0.294341C0.761599 0.325025 0.805726 0.365762 0.840373 0.414067C1.74819 1.53735 3.33631 2.875 5.75022 2.875C8.16412 2.875 9.75225 1.53571 10.6601 0.414067C10.6943 0.364773 10.7383 0.323055 10.7894 0.291508C10.8405 0.259961 10.8975 0.239259 10.9569 0.230691C11.0163 0.222123 11.0768 0.225873 11.1347 0.241706C11.1926 0.257539 11.2467 0.285117 11.2934 0.322724C11.3402 0.360332 11.3788 0.407164 11.4067 0.460307C11.4346 0.513451 11.4513 0.571768 11.4557 0.631631C11.4601 0.691495 11.4521 0.751624 11.4323 0.808277C11.4124 0.86493 11.3812 0.916897 11.3404 0.960942C11.0224 1.3567 10.6691 1.72278 10.2849 2.05469L11.3787 3.96875C11.408 4.01865 11.4272 4.07387 11.435 4.13123C11.4429 4.18859 11.4393 4.24693 11.4244 4.30289C11.4096 4.35884 11.3838 4.41129 11.3485 4.4572C11.3132 4.5031 11.2692 4.54155 11.219 4.57032Z" />
	</svg>

  <svg version="1.1" id="icon_eye" xmlns="http://www.w3.org/2000/svg" xmlns:xlink="http://www.w3.org/1999/xlink" x="0px" y="0px" enable-background="new 0 0 409.6 409.6" xml:space="preserve" viewBox="0 0 409.6 409.6">
    <path d="M409.2,207.2c-2,3.3-3.6,6.8-6,9.8c-28.8,36.1-62.2,67-102.4,90.2c-26.4,15.2-54.7,25.5-85.4,27.5
	c-25,1.7-49.3-2.5-72.7-11.4c-35.3-13.4-65.7-34.7-93.4-59.9C33.2,248.5,18.3,232.4,4.8,215c-5.8-7.4-5.8-13.1,0-20.5
	c29-36.8,62.8-68.3,103.5-91.9c32-18.5,66.2-29.6,103.6-27.9c25.7,1.1,50,8.1,73,19.4c48.4,23.8,87.1,59.1,120.2,101
	c1.7,2.1,2.7,4.8,4,7.3C409.2,204,409.2,205.6,409.2,207.2z M30.9,204.5c1.5,1.8,2.5,3.2,3.7,4.4C47,221.6,58.9,235,72,246.9
	c25.3,23.1,53.5,41.9,86.3,53.1c19.6,6.7,39.8,9.5,60.5,7.2c26.5-2.9,50.6-12.8,73.3-26.3c29.5-17.7,54.7-40.4,77.5-65.9
	c3-3.3,5.8-6.8,9-10.5c-7.8-8.5-15.2-16.9-23-24.8C329.4,153,300.2,130,265.5,115c-17.3-7.5-35.3-12.4-54.3-13.3
	c-29-1.4-55.7,6.7-81.1,19.9c-28.4,14.7-53,34.5-75.3,57.1C46.6,187,38.9,195.8,30.9,204.5z M285.6,205.1
	c-0.3,44.8-36.8,80.9-81.3,80.4c-44.7-0.5-80.6-36.7-80.2-81.1c0.3-44.8,36.8-80.9,81.3-80.4C250,124.5,285.9,160.7,285.6,205.1z
	 M258.6,204.9c0.2-29.6-23.7-53.7-53.6-54c-29.6-0.3-54.2,24.2-54.1,53.9c0.1,29.7,24.1,53.8,53.8,53.8
	C234.3,258.7,258.5,234.7,258.6,204.9z"></path>
  </svg>

	<svg id="icon_success" xmlns="http://www.w3.org/2000/svg" version="1.1" viewBox="0 0 60 60">
		<path d="M30,0c-5.9,0-11.7,1.8-16.7,5.1-4.9,3.3-8.8,8-11,13.5C0,24-.6,30,.6,35.9c1.2,5.8,4,11.2,8.2,15.4,4.2,4.2,9.5,7.1,15.4,8.2,5.8,1.2,11.9.6,17.3-1.7,5.5-2.3,10.2-6.1,13.5-11,3.3-4.9,5.1-10.7,5.1-16.7,0-8-3.2-15.6-8.8-21.2C45.6,3.2,38,0,30,0ZM43.2,24.7l-16.2,16.2c-.2.2-.5.4-.7.5-.3.1-.6.2-.9.2s-.6,0-.9-.2c-.3-.1-.5-.3-.7-.5l-6.9-6.9c-.4-.4-.7-1-.7-1.6s.2-1.2.7-1.6c.4-.4,1-.7,1.6-.7s1.2.2,1.6.7l5.3,5.3,14.5-14.5c.2-.2.5-.4.7-.5.3-.1.6-.2.9-.2s.6,0,.9.2c.3.1.5.3.7.5.2.2.4.5.5.7.1.3.2.6.2.9s0,.6-.2.9c-.1.3-.3.5-.5.7Z"/>
	</svg>
	
	<svg id="icon_error" xmlns="http://www.w3.org/2000/svg" version="1.1" viewBox="0 0 15.75 15.75">
		<path d="M7.44.02c6.31-.35,10.46,6.6,7.12,12-2.95,4.77-9.85,4.99-13.1.42C-2.13,7.39,1.29.37,7.44.02ZM7.72,3.67c-.35.05-.65.37-.69.71v4.28c.16.95,1.47.97,1.68.03-.08-1.37.12-2.89,0-4.25-.04-.51-.48-.85-.99-.78ZM7.69,10.31c-1.24.19-.87,2.22.43,1.87,1.14-.3.81-2.07-.43-1.87Z"/>
	</svg>

	<svg id="icon_confirm" xmlns="http://www.w3.org/2000/svg" version="1.1" viewBox="0 0 384 384">
		<path d="M204.07,0l19.65,2.47c82.17,13.45,147.87,81.05,158.67,163.76.59,4.51.46,9.45,1.61,13.77v24c-1.16,4.32-1.01,9.26-1.61,13.77-10.97,82.8-76.37,150.23-158.67,163.76l-19.65,2.47h-23.99c-4.32-1.16-9.26-1.01-13.76-1.61C81.5,371.14,12.85,302.73,1.75,217.77c-.59-4.51-.46-9.45-1.61-13.77.34-7.93-.46-16.09,0-24C5.72,84.69,84.8,5.58,180.08,0h23.99ZM232.3,110.51c-20.62-20.62-71.77-20.7-88.07,5.5-5.59,8.98-7.07,22.06,4.59,26.64,14.74,5.79,15.13-7.88,23.81-13.98,9.96-7,34.06-6.04,38.23,7.41,5.84,18.82-16.85,27.8-26.67,38.66s-13.24,25.68-11.61,40.14c1.26,11.2,12.62,12.55,21.62,9.62s6.22-11.32,6.97-18.53c1.82-17.53,16.13-22.17,26.53-33.46,16.2-17.58,23.39-43.2,4.6-62ZM182.88,243.18c-22.68,3.64-19.43,39.83,4.28,38.84,26.44-1.1,23.46-43.29-4.28-38.84Z"/>
	</svg>

	<svg id="icon_warning" xmlns="http://www.w3.org/2000/svg" version="1.1" viewBox="0 0 384 384">
		<path d="M378.01,326.97L216.77,26.99c-5.87-10.2-17.46-15.19-29.02-13.61-6.54.89-13.43,4.66-17.61,9.71C113.17,126.8,57.68,231.5,1.83,335.87c-6.97,17.08,6.96,33.82,24.21,35.03h332.1c22.97-2.37,33.33-24.8,19.86-43.93ZM188.57,85.41c11.44-1.82,20.64,5.35,21.78,16.74l-3.42,149.01c-1.82,11.56-15.02,16.91-24.35,9.59-7.83-6.14-5-18.89-5.35-27.77-1.52-38.18-2.72-76.83-3.38-115.03-.22-12.61-1.88-29.9,14.72-32.54ZM194.07,331.88c-25.49,2.43-29.78-36.01-5.48-39.44,28.36-4.01,31.14,37,5.48,39.44Z"/>
	</svg>

	<svg version="1.1" id="icon_close" xmlns="http://www.w3.org/2000/svg" xmlns:xlink="http://www.w3.org/1999/xlink" x="0px" y="0px" enable-background="new 0 0 384 384" xml:space="preserve" viewBox="0 0 384 384">
    <path d="M191.7,208.2c-1.4,1.8-2.2,3.1-3.2,4.2C141,260,93.4,307.5,45.9,355.1c-3.7,3.7-7.7,6-13.1,4.5c-8.5-2.4-11.6-12.4-6-19.2
    c0.9-1.1,1.9-2,2.9-3C77,290,124.4,242.6,171.8,195.3c1-1,2.2-1.7,3.2-2.5c0.2-0.6,0.4-1.1,0.7-1.7c-1.3-0.8-2.8-1.3-3.9-2.3
    c-47.5-47.4-95-94.9-142.3-142.5c-2.3-2.3-4.1-5.8-4.6-9c-0.9-5,1.7-8.9,6.3-11.3c4.6-2.3,9-1.7,13,1.4c1.1,0.8,2,1.9,3,2.9
    c47.2,47.2,94.4,94.4,141.6,141.6c1,1,1.7,2.2,4.2,3.9c0.7-1.3,1.3-2.9,2.3-3.9c47.6-47.7,95.3-95.3,142.9-143c3.8-3.8,8-6,13.4-4.3
    c8.1,2.5,11.1,12.1,5.9,18.8c-1,1.3-2.2,2.4-3.4,3.5c-47.2,47.2-94.4,94.4-141.6,141.6c-1.1,1.1-2.2,2-3.6,3.2
    c1.3,1.4,2.3,2.4,3.3,3.5c47.6,47.5,95.2,95.1,142.6,142.7c2.3,2.3,4.2,5.4,5,8.5c1.3,4.7-1.5,9.6-5.7,12c-4.2,2.4-9.5,2.1-13.4-1
    c-1.2-0.9-2.2-2-3.3-3.1c-47.3-47.3-94.6-94.6-141.9-141.8C194.4,211.5,193.5,210.3,191.7,208.2z"></path>
  </svg>
	
	<svg id="icon_check" xmlns="http://www.w3.org/2000/svg" version="1.1" viewBox="0 0 7.7 6.3">
		<path d="M2.9,6.3c-.1,0-.3,0-.4-.1L0,3.7l.7-.7,2.1,2.1L7,0l.8.6L3.2,6.1c0,.1-.2.2-.4.2,0,0,0,0,0,0Z"/>
	</svg>

	<svg version="1.1" id="icon_arrow" xmlns="http://www.w3.org/2000/svg" xmlns:xlink="http://www.w3.org/1999/xlink" x="0px" y="0px" viewBox="0 0 384 384" enable-background="new 0 0 384 384" xml:space="preserve">
		<path d="M251,192.2c-4.7-4.5-8.7-8.4-12.7-12.4C196,137.5,153.7,95.3,111.6,53c-2.1-2.2-3.9-5.3-4.5-8.3c-1-4.8,1.6-9,5.8-11.1
			c4.5-2.2,8.7-1.7,12.6,1.3c1,0.8,1.8,1.7,2.7,2.6c47.8,47.8,95.6,95.6,143.5,143.4c7.3,7.3,7.3,14.8,0,22.2
			C223.8,251,175.8,298.9,128,346.8c-3.6,3.6-7.4,6-12.6,4.5c-7.9-2.2-11.1-11.4-6.1-17.9c0.9-1.2,2-2.2,3.1-3.3
			c45.1-45.1,90.1-90.1,135.2-135.2C248.5,194.1,249.5,193.4,251,192.2z"/>
	</svg>

	<svg id="icon_calendar" xmlns="http://www.w3.org/2000/svg" version="1.1" viewBox="0 0 384 384">
		<path d="M106.5,0c2.5,1.6,5.7,2.3,7.8,4.6s4.2,6.8,4.2,7.8v16.9h147V12.4c0-1,3.3-6.8,4.2-7.8,2.1-2.2,5.3-3,7.8-4.6h6c4.8,1.3,12,7,12,12.4v16.9c10.8,0,21.9,0,32.4,2.5,25.2,6,46.4,26.8,53.3,51.7s1.7,8.4,2.8,12.6v221.2c-1.3,4.7-1.8,9.7-3.2,14.4-7.2,24.1-28.5,44-52.7,50-3.9,1-7.8,1.2-11.6,2.3H67.5c-3.8-1.1-7.7-1.3-11.6-2.3-23.7-6-44.5-25-52.2-48.3s-2.3-10.8-3.7-16.2V96c3.6-25.2,18.3-47.7,41.3-58.8,15-7.2,30.6-8.5,47.2-8V11.6c0-4.5,7.8-10.7,12-11.6h6ZM88.5,59.2h-16.1c-18.8,0-42.4,20.2-42.4,39.4v19.1h324v-19.1c0-19.2-23.7-39.4-42.4-39.4h-16.1v32.6c0,.3-1.9,4.5-2.4,5.1-5.8,8.9-19.5,8.9-25.3,0s-2.4-4.8-2.4-5.1v-32.6H118.5v31.9c0,.6-1.6,4.6-2.1,5.4-5.2,9.1-19.2,9.6-25.2.9s-2.7-5.1-2.7-5.6v-32.6ZM354,147.8H30v167.6c0,17.8,22.6,38.4,40.2,38.5h241.4c18.4,1,42.3-20.1,42.3-38.5v-167.6ZM87.4,310.5c6.9.8,26.2.8,32.9,0,17-2.3,17.2-27.9-.7-29.9-6.6-.7-27.3-.9-33.6.2-16.9,2.8-16.1,27.9,1.3,29.8ZM296.6,280.5c-6.6-.7-27.3-.9-33.6.2-15.9,2.7-16.2,26.3-.6,29.5,5.3,1.1,30,1.1,35.5.2,11.7-2,16.7-17.5,7.8-25.8s-6.4-3.7-9.1-4ZM264.4,222c6.9.8,26.2.8,32.9,0,17.3-2.4,17.5-28.3-1.4-30-7-.6-26.3-.9-32.9.2-16.6,2.8-16.2,27.9,1.3,29.8ZM87.4,222c6.9.8,26.2.8,32.9,0,17-2.3,17.1-27.9-.7-29.9-6.6-.7-27.3-.9-33.6.2-16.6,2.8-16.4,27.8,1.3,29.8ZM175.9,222c6.9.8,26.2.8,32.9,0,17-2.3,17-27.9-.7-29.9-6.6-.7-27.3-.9-33.6.2-16.9,2.8-16.1,27.9,1.3,29.8ZM175.9,310.5c6.9.8,26.2.8,32.9,0,16.8-2.3,17.4-28.3-1.4-30-7.3-.7-25.9-.9-32.8.2-16.8,2.6-16.2,27.8,1.3,29.8Z"/>
	</svg>

	<svg version="1.1" id="icon_upload" xmlns="http://www.w3.org/2000/svg" xmlns:xlink="http://www.w3.org/1999/xlink" x="0px" y="0px" enable-background="new 0 0 330 306.2" xml:space="preserve" viewBox="0 0 330 306.2">
    <path d="M165,306.2c-34.5,0-69,0-103.5,0c-30.4,0-54.8-20.3-60.4-50.1c-0.9-4.6-0.9-9.4-1-14.2c-0.1-12.2-0.1-24.5,0-36.8
    c0.1-6.4,4.3-11.4,10-12.2c5.9-0.9,11.4,2.3,13.3,8c0.6,1.7,0.7,3.7,0.7,5.5c0.1,12.4,0,24.8,0,37.1c0,23.1,15.5,38.6,38.5,38.6
    c68.2,0,136.5,0,204.7,0c23,0,38.5-15.5,38.5-38.6c0-12.5,0-25,0-37.5c0-8.1,4.8-13.3,12-13.2c7,0.1,12,5.4,11.9,13.1
    c-0.1,15.5,0.6,31.1-0.7,46.5c-2.4,29.9-28.4,53.5-58.5,53.7C235.5,306.3,200.2,306.1,165,306.2C165,306.1,165,306.1,165,306.2z
     M153,41.9c0,1.4,0,2.7,0,4.1c0,56.6,0,113.3,0,169.9c0,1.2,0,2.5,0,3.7c0.3,6,5,10.9,10.9,11.4c6,0.5,11.7-3.7,12.8-9.7
    c0.3-1.6,0.2-3.2,0.2-4.9c0-56.9,0-113.8,0-170.6c0-1.3,0-2.6,0-4.7c1.6,1.5,2.6,2.4,3.5,3.3C195,59,209.5,73.5,224,88
    c5.6,5.6,13,6,18,1c4.9-4.9,4.6-12.4-1-18C218.9,49,196.8,26.9,174.7,4.8c-6.4-6.4-12.9-6.4-19.3,0c-21.9,21.8-43.7,43.6-65.6,65.4
    c-5.6,5.6-5.9,12.9-0.8,17.9c5,4.9,12.1,4.5,17.6-1c14.2-14.2,28.5-28.4,42.7-42.7c0.9-1,1.6-2.2,2.4-3.3
    C152.2,41.4,152.6,41.7,153,41.9z"></path>
  </svg>

	<svg version="1.1" id="icon_paste" xmlns="http://www.w3.org/2000/svg" xmlns:xlink="http://www.w3.org/1999/xlink" x="0px" y="0px" enable-background="new 0 0 384 384" xml:space="preserve" viewBox="0 0 384 384">
    <path d="M141,0c2.4,0.6,4.8,1.1,7.2,1.9c13.4,4.6,22.1,13.7,26.2,27.1c0.7,2.5,1.8,3.1,4.1,3c6.7-0.1,13.5-0.1,20.2,0
    c6.3,0.1,9.1,2.9,9.2,9.2c0,2.1,0,4.2,0,6.7c8.1,0,15.8,0,23.5,0c8.9,0,17,2.5,24.2,7.8c10.9,8.1,16.3,19.1,16.4,32.5
    c0.2,15.5,0.1,31,0,46.5c0,3.9-1.3,7.1-5.3,8.6c-3.3,1.3-6.5,0.6-8.4-2.1c-1.4-2-2.2-4.8-2.3-7.2c-0.2-14.6-0.1-29.2-0.1-43.9
    c0-16.5-9.8-26.3-26.4-26.3c-7,0-14,0-21.6,0c0,2.4,0,4.6,0,6.8C207.8,86,197.8,96,182.5,96c-31,0-62,0-93,0
    c-15.2,0-25.4-10.1-25.5-25.3c0-2.1,0-4.2,0-7.1C53.7,64,43.8,63.5,34.1,65C23.8,66.5,16.8,76,16,87c-0.1,1-0.1,2-0.1,3
    c0,68,0,136,0,203.9c0,12.7,6.6,22.2,17.8,25.1c3,0.8,6.2,1,9.3,1c40.4,0.1,80.7,0,121.1,0c1.4,0,2.8,0,4.1,0.1
    c4.5,0.3,7.9,3.7,7.8,8c-0.1,4.3-3.4,7.6-7.9,7.9c-1.4,0.1-2.7,0-4.1,0c-40.6,0-81.2-0.2-121.8,0.1c-23.5,0.2-39.3-16.7-41.5-33.7
    c0-0.3-0.4-0.6-0.6-0.9c0-73,0-146,0-219c0.2-0.7,0.6-1.3,0.7-2c1.7-8.2,5.4-15.3,11.4-21.1c7.7-7.4,17-11.3,27.7-11.4
    c8-0.1,15.9,0,24.1,0c0-2.2,0-3.9,0-5.6c0-7.7,2.7-10.3,10.4-10.3c7.4,0,14.7,0,22.2,0c0.4-1.1,0.7-2,1-3
    c3.9-12.7,12.1-21.6,24.5-26.5c2.7-1.1,5.7-1.7,8.5-2.6C134,0,137.5,0,141,0z M192,48c-8,0-15.5,0-22.9,0c-5.6,0-8.5-2.8-9.1-8.3
    c-0.2-1.7-0.2-3.5-0.6-5.2c-2.8-11.4-13.3-19.3-24.5-18.5c-12.4,0.9-21.3,9.7-22.7,22.4c-0.9,7.7-3,9.6-10.8,9.6c-7,0-13.9,0-21.2,0
    c0,7.3,0,14.1,0,21c0,8.7,2.4,11.1,11.2,11.1c29.9,0,59.7,0,89.6,0c1.5,0,3,0,4.5-0.2c3.9-0.7,6.6-3.5,6.7-7.4
    C192.1,64.4,192,56.4,192,48z M212.2,384c-2.1-0.8-4.3-1.3-6.3-2.3c-8.8-4.4-13.9-11.6-13.9-21.4c-0.1-58.9-0.1-117.7,0-176.6
    c0-13.1,10.2-23.5,23.7-23.6c33.2-0.3,66.5-0.2,99.7,0c11,0.1,20.4,4.4,28.1,12.2c9.4,9.4,18.7,18.8,28.1,28.1
    c6.8,6.6,10.4,14.8,12.3,23.9c0,46.5,0,93,0,139.5c-0.8,2.3-1.5,4.7-2.6,6.9c-3.6,7.5-10,11.3-17.7,13.4
    C313.2,384,262.8,384,212.2,384z M207.9,271.9c0,28.4,0,56.7,0,85.1c0,8.4,2.7,11,11,11c46.1,0,92.2,0,138.3,0
    c8.1,0,10.9-2.7,10.9-10.8c0-42,0-84,0-125.9c0-8.1-2.6-14.8-8.4-20.5c-8.9-8.6-17.6-17.4-26.2-26.2c-5.7-5.9-12.4-8.7-20.7-8.7
    c-31.4,0.2-62.7,0.1-94.1,0.1c-8.2,0-10.7,2.5-10.7,10.8C207.9,215.2,207.9,243.6,207.9,271.9z M251.1,255.9c-1.1,0-2.3-0.1-3.4,0.1
    c-4.6,0.5-7.8,3.8-7.7,8.1c0,4.2,3,7.3,7.5,7.9c1,0.1,2,0.1,3,0.1c25,0,49.9,0,74.9,0c1.4,0,2.8,0,4.1-0.3c3.9-0.8,6.4-3.9,6.5-7.6
    c0.1-3.9-2.6-7.1-6.6-7.9c-1.3-0.3-2.7-0.3-4.1-0.3c-12.4,0-24.7,0-37.1,0C275.8,255.9,263.5,255.9,251.1,255.9z M249.4,304
    c-5.7,0-9.3,3.2-9.4,8c0,4.8,3.5,8,9.3,8.1c1.6,0,3.2,0,4.9,0c23.2,0,46.4,0,69.6,0c0.9,0,1.7,0,2.6,0c6-0.1,9.6-3.3,9.6-8.2
    c-0.1-4.8-3.7-7.9-9.4-7.9c-12.9-0.1-25.7,0-38.6,0C275.1,303.9,262.2,303.9,249.4,304z"></path>
  </svg>

	<svg version="1.1" id="icon_search" xmlns="http://www.w3.org/2000/svg" xmlns:xlink="http://www.w3.org/1999/xlink" x="0px" y="0px" enable-background="new 0 0 491.5 491.5" xml:space="preserve" viewBox="0 0 491.5 491.5">
    <path d="M219.9,0.4c8.8,1.3,17.7,2.2,26.4,3.8c42.5,8.1,78.8,27.8,109.1,58.5c27.5,28,45.7,61.2,53.5,99.7
    c9.8,48.4,3,94.6-21.2,137.7c-7.8,13.8-17.6,26.5-26.5,39.7c-0.8,0.3-1.7,0.6-2.5,1c1.6,0.8,3.5,1.3,4.7,2.5
    c40.2,39.5,80.4,79,120.4,118.6c2.9,2.8,4.8,6.6,7.2,9.9c0,2.2,0,4.5,0,6.7c-5,10.7-12.6,14.8-21.4,11.3c-2.9-1.1-5.5-3.3-7.7-5.5
    c-40.5-39.7-80.8-79.5-121.2-119.2c-1.2-1.2-2.5-2.4-3.8-3.6c-6.5,4.4-12.7,9-19.1,13c-36.1,22.8-75.8,33.4-118.3,31.8
    c-56.1-2.1-103.9-23.7-143-64.1C27.1,311.9,9,275.6,2.9,233.8C-5,179.6,6.8,129.7,39.3,85.4c31.3-42.7,73.2-69.4,125-80.5
    c8.1-1.7,16.4-2.4,24.6-3.6c1.4-0.2,2.8-0.6,4.1-0.9C202,0.4,210.9,0.4,219.9,0.4z M32.1,202.5c0.4,7.1,0.4,13,1.1,18.9
    c4.4,37.1,18.5,69.9,44.3,97.1c45,47.6,100.7,65.5,164.5,53.1c55.9-10.9,97.7-43,122.5-94.8c25-52.2,23.5-104.9-4.5-155.3
    c-28.6-51.7-73.9-81.1-132.5-88.3c-46.3-5.7-88.9,5.6-126.2,33.8C56.2,101.2,33.7,147.3,32.1,202.5z"></path>
  </svg>

	<svg version="1.1" id="icon_double-arrow" xmlns="http://www.w3.org/2000/svg" xmlns:xlink="http://www.w3.org/1999/xlink" x="0px" y="0px" enable-background="new 0 0 384 384" xml:space="preserve" viewBox="0 0 384 384">
    <path d="M315.5,192.2c-4.7-4.5-8.7-8.4-12.7-12.4C260.6,137.5,218.3,95.3,176.2,53c-2.1-2.2-3.9-5.3-4.5-8.3c-1-4.8,1.6-9,5.8-11.1
    c4.5-2.2,8.7-1.7,12.6,1.3c1,0.8,1.8,1.7,2.7,2.6c47.8,47.8,95.6,95.6,143.5,143.4c7.3,7.3,7.3,14.8,0,22.2
    c-47.9,47.9-95.8,95.8-143.7,143.7c-3.6,3.6-7.4,6-12.6,4.5c-7.9-2.2-11.1-11.4-6.1-17.9c0.9-1.2,2-2.2,3.1-3.3
    c45.1-45.1,90.1-90.1,135.2-135.2C313,194.1,314.1,193.4,315.5,192.2z M182.8,195.1c-45.1,45.1-90.2,90.1-135.2,135.2
    c-1,1-2,1.9-2.8,3c-5.2,6.7-1.9,16.1,6.3,18.1c5.1,1.3,8.8-1.1,12.3-4.6c48-48,95.9-96.1,144.1-143.9c6-6,6.1-16-0.1-22.1
    c-48-47.6-95.7-95.5-143.6-143.3c-1.1-1.1-2.3-2.4-3.6-3.3c-3.8-2.6-7.9-2.9-12-0.6c-4.1,2.3-6.4,6-5.6,10.5
    c0.6,3.1,2.3,6.4,4.5,8.6c42.1,42.4,84.4,84.6,126.7,126.8c4,4,8,7.9,12.8,12.6C185,193.4,183.8,194.2,182.8,195.1z"></path>
  </svg>

  <svg id="icon_filter" xmlns="http://www.w3.org/2000/svg" viewBox="0 0 323.4 305.3">
    <path d="M289.5,0H34.7C20.1.1,9.2,6.7,3.2,20S-.3,45.9,9.5,56.7Q62.8,115.5,116.2,174a13.1,13.1,0,0,1,3.8,9.5c-.2,36.2-.1,72.4-.1,108.5,0,6.8,3.6,11.7,9.5,13s8.2-.9,11.7-3.6L198,255.8a14.6,14.6,0,0,0,5.8-12.2c-.2-20,0-39.9-.2-59.9a13.2,13.2,0,0,1,3.7-9.6q53.6-58.5,106.8-117.2A34.5,34.5,0,0,0,323.4,35C324.1,15.7,309,.1,289.5,0Zm6.2,41.3c-35.6,39.1-71,78.4-106.8,117.3-6.5,7.1-9.7,14.1-9.3,23.9.7,17.9.2,35.9.2,53.8,0,1.8-.1,3.3-1.7,4.6-11,8.8-22,17.6-32.9,26.5l-1.4.6v-3.9q0-44.1.1-88.3a16.5,16.5,0,0,0-4.6-11.7L27.9,41.4c-3.2-3.5-5-7.2-2.8-11.8s5.8-5.7,10.4-5.7q126.3.2,252.5,0c4.7,0,8.4,1.4,10.4,5.8S298.8,37.9,295.7,41.3Z"></path>
  </svg>

  <svg id="icon_filter-fill" xmlns="http://www.w3.org/2000/svg" viewBox="0 0 323.5 305.4">
    <path d="M289.5,0H34.7C20.1.1,9.2,6.7,3.2,20S-.3,45.9,9.5,56.7Q62.8,115.5,116.2,174a12.9,12.9,0,0,1,3.8,9.5c-.2,36.2-.1,72.4-.1,108.5,0,6.8,3.6,11.7,9.5,13s8.2-.9,11.7-3.6L198,255.8a14.6,14.6,0,0,0,5.8-12.2c-.2-20,0-39.9-.2-59.9a13.2,13.2,0,0,1,3.7-9.6q53.6-58.5,106.8-117.2A34.5,34.5,0,0,0,323.4,35C324.1,15.7,309,.1,289.5,0Z" transform="translate(0 0)"></path>
  </svg>

	<svg version="1.1" id="icon_sort" xmlns="http://www.w3.org/2000/svg" xmlns:xlink="http://www.w3.org/1999/xlink" x="0px" y="0px" xml:space="preserve" viewBox="0 0 303.28 447.18">
    <path d="M141.28,447.18c-4.16-2.92-8.84-5.31-12.4-8.84C87.86,397.6,46.99,356.7,6.1,315.82c-7.55-7.54-8.11-16.64-1.59-23.42
    c6.08-6.32,14.87-6.81,21.58-1.16c1.27,1.07,2.42,2.29,3.6,3.47c31.12,31.08,62.25,62.16,93.34,93.29c1.24,1.25,2.04,2.94,3.05,4.42
    c0.59-0.38,1.18-0.77,1.77-1.15c0-2.1,0-4.19,0-6.29c0-120.97,0-241.94,0-362.91c0-2.17-0.06-4.34,0.04-6.5
    c0.46-9.8,6.3-15.54,15.79-15.58c9.55-0.04,15.44,5.56,16.04,15.33c0.13,2.16,0.07,4.33,0.07,6.5c0,122.13,0,244.27,0,366.4
    c0,2.09,0,4.18,0,7.37c2.16-1.81,3.41-2.79,4.58-3.85c35.87-32.37,71.72-64.77,107.6-97.13c12.93-11.66,22.37-10.25,31.31,4.55
    c0,3.33,0,6.67,0,10c-1.72,1.98-3.25,4.19-5.19,5.92c-46.46,41.35-92.94,82.68-139.53,123.88c-3.65,3.23-8.17,5.49-12.28,8.2
    C144.62,447.18,142.95,447.18,141.28,447.18z"></path>
  </svg>

	<svg id="icon_users" xmlns="http://www.w3.org/2000/svg" version="1.1" viewBox="0 0 409.6 409.6">
		<path d="M408.8,267.9c-1.9,23.5,2.6,51.3,0,74.3-1.8,16.1-15.4,29.8-31.5,31.9H31.8c-17.7-3.3-29.4-16.7-30.8-34.7s-1.2-48.8,0-67.9c3.5-56.5,56.6-59.9,100.8-57.1,4.6.3,9.7,1.4,14.2,2.3,9.7-17.8,28-31.2,48.6-32.6,26.7-1.9,55.8,1.4,82.8.1,20.1,2.9,36.6,14.8,46.4,32.5,4.6-.9,9.6-2,14.2-2.3,45.7-2.9,91.1-.6,100.8,53.5ZM275.8,350.2v-112.2c0-13.2-18.9-30.2-32.2-30-24.9,1.4-51.8-1.8-76.5,0-10.7.8-21.9,7.1-27.6,16.2-1.3,2.1-5.4,11.8-5.4,13.7v112.2h141.8ZM110.1,350.2v-109.8c-1.8-1.5-5.8-1.8-8.3-2-11.4-.8-29.3-.8-40.7,0-52.5,3.6-32.2,65.3-36.2,100.3-.9,3.7,5.2,11.5,8.4,11.5h76.9ZM299.7,350.2h76.9c3.2,0,9.3-7.8,8.4-11.5-4-35,16.2-96.7-36.2-100.3s-29.3-.8-40.7,0c-2.3.2-4.6.9-7,1l-1.3,1v109.8ZM196.8,35.8c64.2-6.1,104,67.8,61.9,117.1-37.2,43.6-109.4,26-122.7-29.6-9.7-40.8,18.6-83.6,60.8-87.6ZM198.3,59.8c-57.8,6.6-50.9,97.7,9.3,94,62.6-3.9,56.3-101.4-9.3-94ZM72.5,102.1c63.6-7.3,84.3,77,29.9,101.1-45.3,20.1-90.6-26.8-69.7-71.5s23.7-27.7,39.8-29.6ZM74.9,126c-32.9,5.1-29.7,58.6,6.1,58.1,40.1-.5,37.3-64.9-6.1-58.1ZM321,102.1c63.7-7.2,84.1,77.5,29.4,101.3s-89.3-26.1-69.7-70.7c6.7-15.3,23.6-28.8,40.3-30.6ZM323.4,126c-36.5,5.3-27.3,66.8,13,56.9,34.4-8.4,26-62.6-13-56.9Z"/>
	</svg>

	<svg id="icon_dashboard" xmlns="http://www.w3.org/2000/svg" version="1.1" viewBox="0 0 384 384">
		<path d="M265.4,201.3c5.1,0,9.2-.9,12.7,3.4s2.3,3.5,2.3,3.7v67.1h67.1c5.7,0,7.3,8.9,7.1,13.1-1.1,30.1-21.6,59.7-49,71.8-51.7,22.9-110.1-10-116.9-65.6l-1.1-1.1-173.8-.2c-15.3-5.3-6.5-21.4,7.8-17.9v-84.4c0-3.7,4.1-8.2,7.9-8.6,7.4-.9,33.3-1,40.5,0,2.5.4,7.2,3.9,7.2,6.3v86.6h7.5v-142.1c0-2.6,5.2-6.7,7.9-7.1,7.3-1.1,30.5-.8,38.2,0,3.8.4,9.3,3.7,9.3,7.9v141.4h7.5v-115.1c0-.5,2.3-3.9,3-4.5,1.6-1.3,3.5-1.7,5.6-1.9,7.9-.8,31.5-1.1,39,0s7.2,3.6,7.2,5.6v76.9c1.7.4,1.2-.3,1.7-.9,1.6-2.1,2.7-4.5,5.1-6.1,1.6-39,.3-78.6.7-117.8.1-5.5,3.1-10,8.7-10.8s28.5-.8,36.7,0c2.2.2,4.5.6,6.3,1.9s3.8,4.4,3.8,5.2v93.4ZM247.4,118.8h-18.4l-1.1,1.1v92.6c6.6-1.7,12.5-6.6,19.5-7.5v-86.2ZM122.2,144.3h-19.5v131.2h19.5v-131.2ZM184.4,172h-18.8v103.5h18.8v-103.5ZM59.2,200.5h-19.5v75h19.5v-75ZM262.4,220c-58.9,7.5-77.4,85.3-27.5,118.7,40.3,27,94.3,2.1,101-45.2h-66.4c-1.9,0-7.1-4.4-7.1-6.4v-67.1ZM265.5,49.4c.5-5.6.6-18.5,0-24s-3.8-8.1-8.6-8.6-19.4-.7-24.8,0c-12.4,1.5-10.5,18.3,1.9,18.4l-62.6,61.9-49.2-43.9c-3.1-1.9-6.3-2-9.5-.6L23,134c-3.9,9.1,5.4,17.1,13.6,11.4l80-72.3c.5,0,4.7,3.3,5.5,4.1,13.7,11.9,28.7,28.6,42.8,38.9,3.5,2.5,6,3.6,10.5,2.4l72-70.9c-1.4,13.2,16.7,15.4,18,1.9ZM292.2,178.2c8.9-1.8,24.6,2.1,33.2,5.5,25.1,9.9,45,33.1,50.7,59.6,2.1,10,5.9,25.8-8.2,27.1-23.2,2.1-49.3-1.6-72.8,0-5.7-.6-8.8-3.8-9.4-9.4-2.2-23.8,1.7-50.9,0-75,.4-3.6,3-7,6.6-7.7ZM359.2,252.3c-3.4-28.2-27-52.6-55.5-55.5v55.5h55.5Z"/>
	</svg>

	<svg version="1.1" id="icon_edit" xmlns="http://www.w3.org/2000/svg" xmlns:xlink="http://www.w3.org/1999/xlink" x="0px" y="0px" enable-background="new 0 0 400.7 400.7" xml:space="preserve" viewBox="0 0 400.7 400.7">
    <path d="M0.4,84.2C2.5,78,3.8,71.3,7,65.7c9.5-16.7,24.3-25.3,43.6-25.4c28.9-0.2,57.8-0.1,86.7,0c6.7,0,11.2,4.1,11.3,9.8
	c0.1,5.8-4.7,10-11.5,10c-28.4,0-56.8,0-85.1,0c-15.5,0-26.7,8.4-30.6,22.8c-0.8,3-1,6.2-1,9.3c-0.1,85-0.1,170,0,255
	c0,15.9,8,27.1,22.2,31c3.2,0.9,6.7,1.2,10,1.2c91.6,0.1,183.3,0.1,274.9,0c19.5,0,32.1-12.8,32.2-32.4c0-28.2,0-56.5,0-84.7
	c0-5.7,3-9.9,7.6-10.9c6.1-1.4,11.9,3,12.1,9.4c0.2,7.9,0.1,15.9,0.1,23.8c0,22.5,0.3,45-0.2,67.5c-0.5,24.9-21.7,45.8-46.6,46.9
	c-1.8,0.1-3.6,0.1-5.5,0.1c-91.5,0-183,0-274.5,0c-20,0-35.6-8-45.6-25.4c-3.2-5.6-4.5-12.3-6.6-18.6C0.4,264.9,0.4,174.6,0.4,84.2z
	 M310.2,16.4c-53.7,53.8-107.2,107.8-161.4,161.1c-11.2,11.1-19,22.8-22.5,38.3c-4.9,21.6-11.6,42.9-17.5,64.3
	c-1.5,5.4,0.3,9.7,4.4,12.1c3.4,1.9,6.7,1.2,10.2,0.3c25.9-7.2,51.8-14.5,77.8-21.5c4.4-1.2,8-3.3,11.2-6.5
	C269.8,207,327.3,149.6,384.7,92.1c1.1-1.1,2.2-2.2,3.3-3.4c16.9-18.5,16.5-44.6-0.9-62.7c-4.3-4.5-8.7-9-13.3-13.2
	C365.2,5.2,355.1,1.6,344,1.4C330.4,1.6,319.5,7,310.2,16.4z M347.5,100c-48.1,48.1-96.3,96.3-144.2,144.2
	c-15.1-15.1-30.6-30.6-45.8-45.8c47.7-47.7,96-96,144.2-144.2C316.9,69.4,332.3,84.9,347.5,100z M316,39c7.7-7.3,14-17,26.5-17.5
	c5.9-0.2,11.6,0.9,16,4.9c5.9,5.3,11.7,10.8,16.8,16.8c6.7,7.8,6.9,20.5,0.7,28.7c-3.9,5.1-8.7,9.5-13,14.1
	C347.1,70.1,331.7,54.7,316,39z M132.4,269.3c4.8-17.5,9.5-34.3,14-50.7c12.1,12.1,24.3,24.3,36.6,36.7
	C166.7,259.8,149.9,264.5,132.4,269.3z"></path>
  </svg>

	<svg version="1.1" id="icon_trash" xmlns="http://www.w3.org/2000/svg" xmlns:xlink="http://www.w3.org/1999/xlink" x="0px" y="0px" enable-background="new 0 0 384 384" xml:space="preserve" viewBox="0 0 384 384">
    <path d="M162.8,384c-2.4-0.6-4.8-1.2-7.2-1.9c-21.2-6.1-35.5-25.1-35.5-47.4c-0.1-56,0-111.9,0-167.9c0-1.3,0-2.7,0-4.7
	c-1.3,1.2-2.2,1.9-2.9,2.6c-8.2,8.2-16.4,16.5-24.7,24.6c-5.7,5.7-12,5.6-17.7,0c-6.2-6.2-12.4-12.3-18.6-18.6
	c-11.2-11.4-11.2-27.1,0-38.4c6.6-6.6,13.2-13.2,20.4-20.4c-3.4-3.2-6.7-6.1-9.8-9.1C53.4,89.3,53.5,71.4,67,57.9c13-13,26-26,39-39
	c13.3-13.3,31.2-13.3,44.6-0.1c3.1,3.1,6.1,6.3,9.5,9.9c4.4-4.5,8.5-8.6,12.6-12.7c3.4-3.4,6.4-7.1,10.2-9.9
	C186.5,3.5,190.9,2,195,0c3,0,6,0,9,0c8.4,2.1,14.3,7.7,20,13.7c3.9,4.1,7.9,8,11.9,12c7.3,7.3,7.3,12.9,0.1,20.1
	c-24.6,24.7-49.3,49.3-74,74c-0.9,0.9-1.8,1.9-3.1,3.2c23.5,0,46.1,0,69.1,0c0-6.7-0.1-13.2,0-19.7c0.1-9.1,5.4-16.1,14-18.6
	c23.1-6.7,46.3-13.3,69.5-19.9c13-3.7,24.5,4.9,24.5,18.4c0,84.2,0.1,168.5,0,252.7c0,21.6-14.8,40.4-35.6,46.2
	c-2.4,0.7-4.8,1.2-7.2,1.8C249.8,384,206.3,384,162.8,384z M142.6,146c0,1.7,0,3,0,4.2c0,60.8,0,121.7,0,182.5
	c0,17.9,10.8,28.8,28.7,28.8c38,0,76,0,114,0c17.5,0,28.4-10.8,28.4-28.2c0-61.1,0-122.2,0-183.3c0-1.3-0.1-2.6-0.2-4.1
	C256.4,146,199.7,146,142.6,146z M214,35.1c-3.1-3-6.4-6.1-9.6-9.2c-4.8-4.7-5.3-4.7-9.9-0.1c-40.3,40.3-80.6,80.6-120.9,120.8
	c-0.6,0.6-1.3,1.2-1.8,1.9c-1.8,2-1.8,4,0.1,6c3.8,3.9,7.7,7.8,11.3,11.5C126.8,122.4,170.1,79.1,214,35.1z M313.4,123.3
	c0-11.7,0-23.4,0-35.4c-20.6,5.8-40.8,11.5-61.1,17.2c-0.7,0.2-1.6,1.3-1.6,2c-0.1,5.2-0.1,10.4-0.1,16.1
	C271.7,123.3,292.4,123.3,313.4,123.3z M144.1,43.9c-3.4-3.3-6.8-6.7-10.3-9.9c-3.7-3.4-7.5-3.4-11.3,0.1c-2.1,2-4.1,4-6.1,6.1
	c-11.3,11.3-22.6,22.6-33.9,33.9c-3.6,3.6-4.4,7.5-1.6,10.6c3.5,4,7.5,7.5,11.2,11.1C109.4,78.6,126.5,61.5,144.1,43.9z M267,319.8
	c0,3.7,0.9,7,3.7,9.4c3.6,3.2,7.8,4,12.2,1.9c4.8-2.3,6.7-6.4,6.7-11.6c0-43.9,0-87.7,0-131.6c0-7.8-4.7-13.1-11.4-13
	c-6.6,0.1-11.1,5.2-11.1,12.9c0,21.9,0,43.7,0,65.6C267,275.6,267,297.7,267,319.8z M239.4,187.1c0-5.8-2.9-10-7.8-11.5
	c-7.5-2.4-14.6,3-14.7,11.3c-0.1,12.5,0,25,0,37.5c0,31.6-0.1,63.2,0.1,94.8c0,3,1.2,6.4,2.8,9c2.6,4,7.6,5,12.1,3.4
	c4.7-1.7,7.4-5.6,7.5-11c0-22.4,0-44.7,0-67.1C239.4,231.4,239.4,209.3,239.4,187.1z M189.3,211.9c0-8.5,0.1-17-0.1-25.5
	c-0.1-6.1-3.8-10.3-9.5-11.2c-7.4-1.2-12.9,4.4-12.9,13.2c0,43.5,0,86.9,0,130.4c0,1.6,0.1,3.3,0.4,4.8c1.1,4.9,5.5,8.5,10.5,8.6
	c5,0.2,9.7-3.1,11-7.9c0.5-1.9,0.5-4,0.5-5.9c0-21.5,0-43,0-64.5C189.3,239.9,189.3,225.9,189.3,211.9z"></path>
  </svg>

	<svg version="1.1" id="icon_disable" xmlns="http://www.w3.org/2000/svg" xmlns:xlink="http://www.w3.org/1999/xlink" x="0px" y="0px" enable-background="new 0 0 134.1 134.1" xml:space="preserve" viewBox="0 0 134.1 134.1">
    <path d="M63.1,0.1c2.6,0,5.2,0,7.8,0c0.3,0.1,0.7,0.2,1,0.2c10.5,0.7,20.3,3.7,29.2,9.2c17.3,10.6,28,25.9,31.7,46
	c0.5,2.5,0.7,5.1,1,7.6c0,2.6,0,5.2,0,7.8c-0.1,0.5-0.2,0.9-0.2,1.4c-0.4,2.9-0.7,5.8-1.3,8.6c-3.5,16.1-11.7,29.2-24.8,39.1
	C91.3,132.4,73,136.5,53,132.4c-16-3.3-29-11.7-39-24.7C3.3,93.7-1.2,77.8,0.5,60.3c1.4-14.2,6.9-26.7,16.3-37.4
	c10.4-11.7,23.3-19,38.7-21.8C58,0.7,60.6,0.5,63.1,0.1z M24.2,32.9C7.8,52.4,6.3,86.5,30.9,108.3c22.9,20.2,53.9,15.7,70.2,1.6
	C75.4,84.2,49.8,58.5,24.2,32.9z M109.9,101.2c17.4-21.3,16.9-55.3-7.5-76.1C79.9,6,49.7,9.8,32.9,24.2
	C58.5,49.9,84.2,75.5,109.9,101.2z"></path>
  </svg>

	<svg id="icon_dots" xmlns="http://www.w3.org/2000/svg" version="1.1" viewBox="0 0 384 384">
		<path d="M187.33,36.21c43.95-5.3,56.63,58.28,14.81,70.31-49.91,14.36-64.61-64.31-14.81-70.31ZM202.15,226.52c41.82-12.03,29.14-75.61-14.81-70.31-49.79,6-35.09,84.67,14.81,70.31ZM202.15,346.52c41.82-12.03,29.14-75.61-14.81-70.31-49.79,6-35.09,84.67,14.81,70.31Z"/>
	</svg>
</svg>
